<svg xmlns="http://www.w3.org/2000/svg" height="48" viewBox="0 -960 960 960" width="48"><path d="M444-155v-304L177-614v304.981L444-155Zm73 0 266-154.019V-614L517-459.143V-155Zm-37-366 262-153-262-152-263 152 263 153ZM141-245q-18.25-10.426-27.625-27.299Q104-289.172 104-308v-344q0-18.828 9.375-35.701T141-715l303-175q16.902-10 35.951-10T517-890l302 175q17.25 10.426 27.125 27.299Q856-670.828 856-652v344q0 18.828-9.875 35.701T819-245L517-70q-18.328 10-37.377 10Q460.574-60 444-70L141-245Zm339-235Z"/></svg>